<svg xmlns="http://www.w3.org/2000/svg" xmlns:xlink="http://www.w3.org/1999/xlink" width="500" zoomAndPan="magnify" viewBox="0 0 375 374.999991" height="500" preserveAspectRatio="xMidYMid meet" version="1.0"><defs><clipPath id="id1"><path d="M 16 161 L 374.695312 161 L 374.695312 315.765625 L 16 315.765625 Z M 16 161 " clip-rule="nonzero"/></clipPath><clipPath id="id2"><path d="M 13 59.316406 L 116 59.316406 L 116 135 L 13 135 Z M 13 59.316406 " clip-rule="nonzero"/></clipPath></defs><g clip-path="url(#id1)"><path fill="#1b3c60" d="M 16.003906 223.363281 L 247.511719 161.082031 L 374.695312 219.929688 L 140.007812 315.765625 L 16.003906 223.363281 " fill-opacity="1" fill-rule="nonzero"/></g><path fill="#e15783" d="M 91.5625 246.433594 L 65.289062 233.148438 C 63.289062 232.140625 62.46875 229.714844 63.445312 227.699219 C 64.101562 226.335938 65.460938 225.449219 66.96875 225.386719 L 93.179688 223.707031 L 94.152344 219.929688 L 108.949219 227.667969 L 103.605469 242.71875 C 101.246094 246.996094 95.921875 248.644531 91.5625 246.433594 " fill-opacity="1" fill-rule="nonzero"/><path fill="#e15783" d="M 127.636719 244.019531 L 101.363281 230.734375 C 99.363281 229.726562 98.546875 227.296875 99.519531 225.285156 C 100.179688 223.921875 101.535156 223.03125 103.046875 222.972656 L 129.253906 221.292969 L 130.226562 217.515625 L 145.027344 225.25 L 139.679688 240.300781 C 137.320312 244.582031 131.996094 246.226562 127.636719 244.019531 " fill-opacity="1" fill-rule="nonzero"/><path fill="#ef3530" d="M 126.015625 222.332031 L 150.394531 231.257812 L 146.753906 190.375 Z M 126.015625 222.332031 " fill-opacity="1" fill-rule="nonzero"/><path fill="#ef3530" d="M 214.984375 225.574219 C 214.984375 225.574219 211.707031 247.835938 183.164062 253.105469 C 175.738281 254.476562 168.140625 251.785156 163.199219 246.070312 L 133.476562 211.691406 L 122 241.113281 L 89.515625 224.363281 L 116.542969 179.777344 C 120.832031 171.527344 131.410156 168.953125 139.011719 174.308594 L 139.519531 173.53125 C 143.722656 167.175781 152.261719 165.414062 158.632812 169.582031 L 167.671875 175.496094 L 214.984375 225.574219 " fill-opacity="1" fill-rule="nonzero"/><path fill="#ef3530" d="M 298.367188 206.59375 C 298.367188 206.59375 295.089844 230.117188 266.546875 235.386719 C 259.125 236.761719 251.523438 234.066406 246.582031 228.351562 L 216.859375 193.972656 L 205.382812 223.398438 L 175.9375 208.214844 L 199.925781 162.0625 C 204.214844 153.8125 214.796875 151.234375 222.394531 156.59375 L 222.90625 155.8125 C 227.105469 149.460938 235.644531 147.695312 242.015625 151.863281 L 251.054688 157.777344 L 298.367188 206.59375 " fill-opacity="1" fill-rule="nonzero"/><path fill="#1b3c60" d="M 181.808594 253.808594 C 173.640625 253.808594 165.664062 250.214844 159.820312 243.253906 L 121.574219 197.671875 C 121.34375 197.402344 121.378906 196.992188 121.652344 196.765625 C 121.925781 196.535156 122.332031 196.570312 122.5625 196.839844 L 160.808594 242.421875 C 170.574219 254.058594 186.589844 255.832031 198.886719 246.636719 C 204.792969 242.214844 212.277344 234.949219 214.351562 225.4375 C 214.425781 225.089844 214.765625 224.871094 215.121094 224.945312 C 215.46875 225.019531 215.691406 225.363281 215.613281 225.710938 C 213.457031 235.617188 205.742188 243.121094 199.660156 247.671875 C 194.148438 251.789062 187.925781 253.808594 181.808594 253.808594 " fill-opacity="1" fill-rule="nonzero"/><path fill="#1b3c60" d="M 263.292969 236.1875 C 256.304688 236.1875 250.015625 233.261719 245.164062 227.464844 L 204.941406 179.445312 C 204.714844 179.171875 204.75 178.765625 205.023438 178.535156 C 205.296875 178.308594 205.703125 178.339844 205.933594 178.617188 L 246.152344 226.632812 C 254.523438 236.628906 267.472656 237.582031 280.78125 229.179688 C 285.636719 226.113281 294.296875 219.082031 297.742188 206.425781 C 297.835938 206.078125 298.183594 205.878906 298.535156 205.972656 C 298.882812 206.066406 299.082031 206.421875 298.988281 206.761719 C 295.429688 219.84375 286.484375 227.105469 281.472656 230.273438 C 275.210938 234.222656 269.015625 236.1875 263.292969 236.1875 " fill-opacity="1" fill-rule="nonzero"/><path fill="#31b6a1" d="M 140.9375 134.097656 L 135.925781 101.621094 L 156.902344 101.390625 L 153.457031 134.097656 L 140.9375 134.097656 " fill-opacity="1" fill-rule="nonzero"/><path fill="#e15783" d="M 209.242188 131.476562 L 202.460938 133.332031 L 207.53125 151.8125 L 219.085938 147.398438 L 209.242188 131.476562 " fill-opacity="1" fill-rule="nonzero"/><path fill="#e15783" d="M 290.152344 141.753906 L 288.808594 174.035156 L 264.355469 136.347656 L 290.152344 141.753906 " fill-opacity="1" fill-rule="nonzero"/><path fill="#e15783" d="M 214.984375 168.25 L 202.460938 209.230469 L 191.007812 151.8125 L 214.984375 168.25 " fill-opacity="1" fill-rule="nonzero"/><path fill="#e15783" d="M 244.066406 107.007812 L 245.632812 102.46875 C 245.632812 102.46875 245.414062 97.847656 243.078125 92.613281 L 256.730469 89.492188 L 259.148438 88.992188 L 262.765625 101.082031 L 262.164062 113.546875 L 244.066406 107.007812 " fill-opacity="1" fill-rule="nonzero"/><path fill="#e15783" d="M 247.964844 97.359375 C 254.835938 96.265625 259.519531 89.808594 258.425781 82.933594 L 257.070312 74.449219 C 255.980469 67.574219 249.523438 62.890625 242.652344 63.984375 C 235.785156 65.078125 231.101562 71.535156 232.195312 78.410156 L 233.542969 86.894531 C 234.636719 93.769531 241.09375 98.453125 247.964844 97.359375 " fill-opacity="1" fill-rule="nonzero"/><path fill="#e15783" d="M 234.996094 85.84375 L 230.371094 85.554688 L 232.261719 74.046875 L 236.546875 76.242188 L 234.996094 85.84375 " fill-opacity="1" fill-rule="nonzero"/><path fill="#ef3530" d="M 235.238281 85.441406 C 235.238281 86.308594 236.210938 87.003906 237.417969 87.003906 C 238.621094 87.003906 239.601562 86.308594 239.601562 85.441406 C 239.601562 84.578125 238.621094 83.882812 237.417969 83.882812 C 236.210938 83.882812 235.238281 84.578125 235.238281 85.441406 " fill-opacity="1" fill-rule="nonzero"/><path fill="#1b3c60" d="M 261.601562 91.644531 C 261.601562 91.644531 269.234375 82.476562 261.515625 66.570312 C 259.160156 61.710938 253.601562 59.304688 248.4375 60.859375 L 239.039062 63.683594 L 238.015625 63.519531 C 233.558594 62.824219 229.207031 65.832031 228.652344 70.316406 C 228.511719 71.476562 228.613281 72.546875 229.15625 73.339844 C 231.3125 76.527344 241.417969 77.664062 241.417969 77.664062 L 243.527344 93.363281 C 243.527344 93.363281 258.035156 97.441406 261.601562 91.644531 " fill-opacity="1" fill-rule="nonzero"/><path fill="#e15783" d="M 237.863281 79.710938 C 237.863281 82.234375 239.910156 84.28125 242.433594 84.28125 C 244.957031 84.28125 247 82.234375 247 79.710938 C 247 77.1875 244.957031 75.140625 242.433594 75.140625 C 239.910156 75.140625 237.863281 77.1875 237.863281 79.710938 " fill-opacity="1" fill-rule="nonzero"/><path fill="#1b3c60" d="M 238.601562 77.226562 L 237.96875 80.671875 L 236.550781 80.042969 L 234.996094 76.042969 L 237.265625 74.949219 L 238.601562 77.226562 " fill-opacity="1" fill-rule="nonzero"/><path fill="#1b3c60" d="M 241.058594 83.117188 C 241.117188 83.117188 241.167969 83.109375 241.226562 83.082031 C 241.421875 82.992188 241.507812 82.753906 241.414062 82.554688 C 239.84375 79.199219 242.511719 77.09375 242.621094 77.007812 C 242.796875 76.875 242.832031 76.628906 242.695312 76.457031 C 242.566406 76.28125 242.316406 76.246094 242.144531 76.378906 C 242.113281 76.40625 238.855469 78.949219 240.699219 82.894531 C 240.765625 83.039062 240.910156 83.117188 241.058594 83.117188 " fill-opacity="1" fill-rule="nonzero"/><path fill="#1b3c60" d="M 245.3125 81.378906 C 245.382812 81.378906 245.453125 81.359375 245.519531 81.316406 C 245.707031 81.203125 245.757812 80.957031 245.644531 80.773438 C 243.667969 77.582031 240.761719 78.394531 240.734375 78.40625 C 240.523438 78.464844 240.40625 78.683594 240.464844 78.898438 C 240.53125 79.105469 240.75 79.222656 240.957031 79.164062 C 241.054688 79.136719 243.320312 78.527344 244.972656 81.1875 C 245.050781 81.3125 245.175781 81.378906 245.3125 81.378906 " fill-opacity="1" fill-rule="nonzero"/><path fill="#e15783" d="M 171.589844 117.003906 L 171.785156 116.695312 C 173.703125 113.671875 174.644531 110.125 174.417969 106.546875 C 174.347656 105.378906 174.203125 104.109375 173.953125 102.777344 L 187.957031 102.894531 L 191.148438 115.566406 L 187.683594 127.558594 L 171.589844 117.003906 " fill-opacity="1" fill-rule="nonzero"/><path fill="#e15783" d="M 175.808594 108.515625 C 183.625 109.128906 190.441406 103.09375 191.027344 95.050781 L 191.757812 85.117188 C 192.347656 77.070312 186.488281 70.058594 178.671875 69.449219 C 170.855469 68.84375 164.039062 74.875 163.449219 82.921875 L 162.722656 92.847656 C 162.132812 100.894531 167.992188 107.910156 175.808594 108.515625 " fill-opacity="1" fill-rule="nonzero"/><path fill="#e15783" d="M 164.582031 92.058594 L 159.59375 90.484375 L 164.660156 78.015625 L 168.78125 81.636719 L 164.582031 92.058594 " fill-opacity="1" fill-rule="nonzero"/><path fill="#ef3530" d="M 164.953125 91.664062 C 164.730469 92.640625 165.621094 93.6875 166.9375 94.011719 C 168.261719 94.332031 169.511719 93.808594 169.738281 92.835938 C 169.960938 91.863281 169.074219 90.8125 167.753906 90.488281 C 166.429688 90.167969 165.179688 90.695312 164.953125 91.664062 " fill-opacity="1" fill-rule="nonzero"/><path fill="#1b3c60" d="M 174.425781 108.992188 C 174.386719 108.992188 174.339844 108.984375 174.300781 108.972656 C 161.308594 105.113281 162.164062 93.933594 162.488281 91.636719 L 159.003906 90.789062 L 163.671875 79.304688 C 163.757812 79.085938 164.011719 78.976562 164.234375 79.070312 C 164.453125 79.160156 164.558594 79.410156 164.46875 79.628906 L 160.179688 90.183594 L 163.484375 90.992188 L 163.398438 91.402344 C 163.289062 91.914062 160.886719 104.089844 174.546875 108.148438 C 174.777344 108.214844 174.902344 108.457031 174.835938 108.683594 C 174.78125 108.871094 174.609375 108.992188 174.425781 108.992188 " fill-opacity="1" fill-rule="nonzero"/><path fill="#f8d425" d="M 130.0625 140.609375 L 139.011719 174.308594 L 157.6875 157.15625 L 149.011719 215.824219 C 149.011719 215.824219 190.085938 245.023438 214.984375 225.574219 L 205.660156 171.941406 L 214.984375 168.25 C 214.984375 168.25 203.34375 127.554688 190.386719 112.539062 L 172.882812 114.964844 L 130.0625 140.609375 " fill-opacity="1" fill-rule="nonzero"/><path fill="#31b6a1" d="M 209.242188 131.476562 L 221.09375 161.257812 L 238.667969 143.617188 L 233.855469 204.113281 C 233.855469 204.113281 282.238281 238.246094 298.367188 206.59375 C 298.367188 206.59375 288.910156 163.683594 283.949219 149.203125 L 290.152344 141.753906 C 290.152344 141.753906 279.789062 114.328125 264.101562 105.085938 L 262.765625 101.082031 L 245.632812 102.46875 L 243.960938 107.316406 L 209.242188 131.476562 " fill-opacity="1" fill-rule="nonzero"/><path fill="#1b3c60" d="M 205.660156 171.941406 L 214.984375 168.25 L 200.074219 145.703125 Z M 205.660156 171.941406 " fill-opacity="1" fill-rule="nonzero"/><path fill="#1b3c60" d="M 139.011719 174.308594 L 153.375 186.328125 L 154.496094 178.742188 L 140.800781 172.660156 L 139.011719 174.308594 " fill-opacity="1" fill-rule="nonzero"/><path fill="#1b3c60" d="M 237.152344 166.089844 C 237.015625 166.089844 236.878906 166.050781 236.761719 165.957031 L 225.21875 157.238281 C 224.9375 157.023438 224.878906 156.617188 225.089844 156.332031 C 225.308594 156.050781 225.710938 155.992188 226 156.207031 L 237.542969 164.929688 C 237.824219 165.144531 237.882812 165.546875 237.667969 165.832031 C 237.542969 166 237.347656 166.089844 237.152344 166.089844 " fill-opacity="1" fill-rule="nonzero"/><path fill="#1b3c60" d="M 122.066406 241.203125 L 134.246094 210.816406 L 124.980469 200.734375 Z M 122.066406 241.203125 " fill-opacity="1" fill-rule="nonzero"/><path fill="#1b3c60" d="M 150.394531 231.902344 C 150.320312 231.902344 150.246094 231.890625 150.171875 231.863281 L 128.476562 223.96875 C 128.140625 223.847656 127.96875 223.476562 128.089844 223.140625 C 128.210938 222.804688 128.585938 222.632812 128.917969 222.753906 L 150.613281 230.652344 C 150.949219 230.773438 151.121094 231.140625 151 231.480469 C 150.902344 231.742188 150.65625 231.902344 150.394531 231.902344 " fill-opacity="1" fill-rule="nonzero"/><path fill="#1b3c60" d="M 283.949219 149.203125 L 290.152344 141.753906 L 274.269531 123.496094 Z M 283.949219 149.203125 " fill-opacity="1" fill-rule="nonzero"/><path fill="#1b3c60" d="M 160.902344 161.160156 C 160.726562 161.160156 160.550781 161.089844 160.425781 160.949219 L 154.5 154.386719 C 154.261719 154.121094 154.28125 153.710938 154.546875 153.472656 C 154.808594 153.234375 155.21875 153.253906 155.457031 153.519531 L 161.378906 160.078125 C 161.621094 160.347656 161.601562 160.753906 161.335938 160.996094 C 161.210938 161.105469 161.058594 161.160156 160.902344 161.160156 " fill-opacity="1" fill-rule="nonzero"/><path fill="#1b3c60" d="M 242.113281 146.828125 C 241.964844 146.828125 241.816406 146.777344 241.695312 146.671875 L 235.101562 141.070312 C 234.828125 140.839844 234.796875 140.429688 235.027344 140.160156 C 235.261719 139.886719 235.667969 139.851562 235.941406 140.085938 L 242.527344 145.691406 C 242.800781 145.921875 242.835938 146.328125 242.601562 146.597656 C 242.476562 146.75 242.292969 146.828125 242.113281 146.828125 " fill-opacity="1" fill-rule="nonzero"/><path fill="#1b3c60" d="M 244.769531 97.890625 C 244.757812 97.890625 244.75 97.890625 244.734375 97.890625 C 235.019531 97.148438 233.324219 88.03125 233.070312 85.984375 L 229.863281 85.984375 L 231.621094 75.316406 C 231.65625 75.082031 231.878906 74.921875 232.113281 74.960938 C 232.347656 75 232.507812 75.222656 232.46875 75.460938 L 230.878906 85.121094 L 233.863281 85.121094 L 233.886719 85.527344 C 233.914062 85.96875 234.65625 96.253906 244.804688 97.03125 C 245.039062 97.050781 245.21875 97.253906 245.199219 97.496094 C 245.183594 97.71875 244.996094 97.890625 244.769531 97.890625 " fill-opacity="1" fill-rule="nonzero"/><path fill="#1b3c60" d="M 234.410156 82.496094 C 234.195312 82.496094 234.007812 82.335938 233.980469 82.117188 L 233.722656 80 C 233.695312 79.765625 233.863281 79.550781 234.097656 79.519531 C 234.332031 79.488281 234.550781 79.65625 234.578125 79.898438 L 234.835938 82.011719 C 234.867188 82.246094 234.699219 82.460938 234.460938 82.492188 C 234.441406 82.496094 234.425781 82.496094 234.410156 82.496094 " fill-opacity="1" fill-rule="nonzero"/><path fill="#1b3c60" d="M 165.328125 98.359375 C 163.886719 98.359375 162.992188 97.871094 162.929688 97.835938 C 162.722656 97.71875 162.652344 97.457031 162.765625 97.25 C 162.882812 97.042969 163.148438 96.96875 163.351562 97.085938 C 163.441406 97.132812 165.597656 98.28125 168.710938 96.527344 C 168.917969 96.414062 169.179688 96.484375 169.296875 96.695312 C 169.414062 96.898438 169.339844 97.164062 169.132812 97.277344 C 167.65625 98.113281 166.351562 98.359375 165.328125 98.359375 " fill-opacity="1" fill-rule="nonzero"/><path fill="#1b3c60" d="M 166.410156 87.953125 C 166.378906 87.953125 166.339844 87.949219 166.304688 87.941406 C 166.074219 87.882812 165.9375 87.648438 165.992188 87.417969 L 166.449219 85.585938 C 166.507812 85.359375 166.742188 85.214844 166.976562 85.273438 C 167.203125 85.332031 167.347656 85.566406 167.289062 85.796875 L 166.828125 87.625 C 166.78125 87.820312 166.605469 87.953125 166.410156 87.953125 " fill-opacity="1" fill-rule="nonzero"/><path fill="#e15783" d="M 152.367188 115.414062 C 152.367188 116.324219 151.828125 117.195312 150.9375 117.574219 L 147.113281 119.210938 C 144.890625 120.160156 143.238281 122.070312 142.628906 124.410156 C 141.738281 127.820312 139.726562 130.832031 136.917969 132.953125 L 111.960938 151.816406 L 130.066406 140.613281 L 136.578125 165.09375 L 117.625 171.675781 C 114.886719 172.707031 112.003906 173.238281 109.117188 173.238281 C 106.664062 173.238281 104.195312 172.855469 101.828125 172.097656 C 99.871094 171.46875 98.175781 170.316406 96.894531 168.804688 C 95.609375 167.304688 94.742188 165.441406 94.421875 163.410156 C 93.886719 159.902344 95.035156 156.34375 97.511719 153.808594 L 132.78125 117.746094 L 137.613281 112.539062 L 138.214844 116.480469 L 149.355469 113.171875 C 150.535156 112.816406 151.789062 113.4375 152.222656 114.601562 C 152.316406 114.867188 152.367188 115.144531 152.367188 115.414062 " fill-opacity="1" fill-rule="nonzero"/><path fill="#1b3c60" d="M 111.054688 152.886719 C 110.859375 152.886719 110.664062 152.792969 110.535156 152.625 C 110.320312 152.34375 110.378906 151.933594 110.664062 151.71875 L 139.960938 129.578125 C 140.25 129.363281 140.652344 129.417969 140.867188 129.703125 C 141.082031 129.992188 141.027344 130.394531 140.738281 130.609375 L 111.441406 152.753906 C 111.328125 152.839844 111.1875 152.886719 111.054688 152.886719 " fill-opacity="1" fill-rule="nonzero"/><path fill="#1b3c60" d="M 235.023438 91.378906 C 235.003906 91.378906 234.992188 91.378906 234.988281 91.378906 C 234.75 91.375 234.5625 91.179688 234.5625 90.941406 C 234.566406 90.703125 234.792969 90.515625 235 90.515625 C 235.027344 90.523438 237.304688 90.535156 238.265625 89.339844 C 238.414062 89.152344 238.6875 89.128906 238.871094 89.277344 C 239.054688 89.425781 239.082031 89.699219 238.933594 89.882812 C 237.769531 91.328125 235.363281 91.378906 235.023438 91.378906 " fill-opacity="1" fill-rule="nonzero"/><path fill="#1b3c60" d="M 170.019531 76.089844 C 170.019531 78.472656 168.089844 80.40625 165.710938 80.40625 C 163.328125 80.40625 161.398438 78.472656 161.398438 76.089844 C 161.398438 73.707031 163.328125 71.777344 165.710938 71.777344 C 168.089844 71.777344 170.019531 73.707031 170.019531 76.089844 " fill-opacity="1" fill-rule="nonzero"/><path fill="#1b3c60" d="M 175.898438 81.378906 C 175.898438 83.757812 173.972656 85.691406 171.589844 85.691406 C 169.207031 85.691406 167.277344 83.757812 167.277344 81.378906 C 167.277344 78.996094 169.207031 77.0625 171.589844 77.0625 C 173.972656 77.0625 175.898438 78.996094 175.898438 81.378906 " fill-opacity="1" fill-rule="nonzero"/><path fill="#1b3c60" d="M 174.335938 73.152344 C 174.335938 75.535156 172.402344 77.464844 170.019531 77.464844 C 167.640625 77.464844 165.710938 75.535156 165.710938 73.152344 C 165.710938 70.769531 167.640625 68.835938 170.019531 68.835938 C 172.402344 68.835938 174.335938 70.769531 174.335938 73.152344 " fill-opacity="1" fill-rule="nonzero"/><path fill="#1b3c60" d="M 179.488281 70.828125 C 179.488281 73.207031 177.558594 75.140625 175.175781 75.140625 C 172.792969 75.140625 170.863281 73.207031 170.863281 70.828125 C 170.863281 68.441406 172.792969 66.511719 175.175781 66.511719 C 177.558594 66.511719 179.488281 68.441406 179.488281 70.828125 " fill-opacity="1" fill-rule="nonzero"/><path fill="#1b3c60" d="M 179.488281 85.84375 C 179.488281 88.230469 177.558594 90.160156 175.175781 90.160156 C 172.792969 90.160156 170.863281 88.230469 170.863281 85.84375 C 170.863281 83.464844 172.792969 81.53125 175.175781 81.53125 C 177.558594 81.53125 179.488281 83.464844 179.488281 85.84375 " fill-opacity="1" fill-rule="nonzero"/><path fill="#1b3c60" d="M 193.492188 81.882812 C 193.492188 83.625 192.082031 85.039062 190.34375 85.039062 C 188.597656 85.039062 187.1875 83.625 187.1875 81.882812 C 187.1875 80.140625 188.597656 78.726562 190.34375 78.726562 C 192.082031 78.726562 193.492188 80.140625 193.492188 81.882812 " fill-opacity="1" fill-rule="nonzero"/><path fill="#1b3c60" d="M 189.871094 71.511719 C 189.871094 73.257812 188.457031 74.667969 186.71875 74.667969 C 184.976562 74.667969 183.566406 73.257812 183.566406 71.511719 C 183.566406 69.773438 184.976562 68.363281 186.71875 68.363281 C 188.457031 68.363281 189.871094 69.773438 189.871094 71.511719 " fill-opacity="1" fill-rule="nonzero"/><path fill="#1b3c60" d="M 173.175781 68.835938 C 173.175781 70.582031 171.765625 71.992188 170.019531 71.992188 C 168.28125 71.992188 166.867188 70.582031 166.867188 68.835938 C 166.867188 67.097656 168.28125 65.683594 170.019531 65.683594 C 171.765625 65.683594 173.175781 67.097656 173.175781 68.835938 " fill-opacity="1" fill-rule="nonzero"/><path fill="#1b3c60" d="M 195.347656 87.523438 C 195.347656 89.261719 193.9375 90.675781 192.195312 90.675781 C 190.457031 90.675781 189.046875 89.261719 189.046875 87.523438 C 189.046875 85.78125 190.457031 84.367188 192.195312 84.367188 C 193.9375 84.367188 195.347656 85.78125 195.347656 87.523438 " fill-opacity="1" fill-rule="nonzero"/><path fill="#1b3c60" d="M 193.492188 91.523438 C 193.492188 92.859375 192.40625 93.945312 191.070312 93.945312 C 189.734375 93.945312 188.644531 92.859375 188.644531 91.523438 C 188.644531 90.183594 189.734375 89.097656 191.070312 89.097656 C 192.40625 89.097656 193.492188 90.183594 193.492188 91.523438 " fill-opacity="1" fill-rule="nonzero"/><path fill="#1b3c60" d="M 179.660156 90.675781 C 179.660156 92.011719 178.578125 93.097656 177.238281 93.097656 C 175.902344 93.097656 174.816406 92.011719 174.816406 90.675781 C 174.816406 89.335938 175.902344 88.25 177.238281 88.25 C 178.578125 88.25 179.660156 89.335938 179.660156 90.675781 " fill-opacity="1" fill-rule="nonzero"/><path fill="#1b3c60" d="M 185.679688 74.949219 C 185.679688 77.332031 183.75 79.261719 181.367188 79.261719 C 178.988281 79.261719 177.058594 77.332031 177.058594 74.949219 C 177.058594 72.566406 178.988281 70.632812 181.367188 70.632812 C 183.75 70.632812 185.679688 72.566406 185.679688 74.949219 " fill-opacity="1" fill-rule="nonzero"/><path fill="#1b3c60" d="M 185.679688 71.984375 C 185.679688 74.367188 183.75 76.296875 181.367188 76.296875 C 178.988281 76.296875 177.058594 74.367188 177.058594 71.984375 C 177.058594 69.601562 178.988281 67.667969 181.367188 67.667969 C 183.75 67.667969 185.679688 69.601562 185.679688 71.984375 " fill-opacity="1" fill-rule="nonzero"/><path fill="#1b3c60" d="M 193.0625 75.386719 C 193.0625 77.773438 191.128906 79.703125 188.746094 79.703125 C 186.363281 79.703125 184.4375 77.773438 184.4375 75.386719 C 184.4375 73.003906 186.363281 71.074219 188.746094 71.074219 C 191.128906 71.074219 193.0625 73.003906 193.0625 75.386719 " fill-opacity="1" fill-rule="nonzero"/><path fill="#1b3c60" d="M 167.613281 76.4375 L 177.839844 90.160156 L 178.664062 105.3125 L 187.988281 103.035156 L 191.800781 88.363281 L 190.085938 77.0625 L 174.425781 70.632812 L 167.613281 76.4375 " fill-opacity="1" fill-rule="nonzero"/><path fill="#1b3c60" d="M 179.660156 94.480469 C 179.660156 95.820312 178.578125 96.90625 177.238281 96.90625 C 175.902344 96.90625 174.816406 95.820312 174.816406 94.480469 C 174.816406 93.140625 175.902344 92.058594 177.238281 92.058594 C 178.578125 92.058594 179.660156 93.140625 179.660156 94.480469 " fill-opacity="1" fill-rule="nonzero"/><path fill="#1b3c60" d="M 181.367188 98.65625 C 181.367188 99.996094 180.285156 101.082031 178.945312 101.082031 C 177.605469 101.082031 176.523438 99.996094 176.523438 98.65625 C 176.523438 97.316406 177.605469 96.230469 178.945312 96.230469 C 180.285156 96.230469 181.367188 97.316406 181.367188 98.65625 " fill-opacity="1" fill-rule="nonzero"/><path fill="#1b3c60" d="M 192.765625 95.949219 C 192.765625 97.285156 191.679688 98.371094 190.34375 98.371094 C 189.003906 98.371094 187.914062 97.285156 187.914062 95.949219 C 187.914062 94.609375 189.003906 93.523438 190.34375 93.523438 C 191.679688 93.523438 192.765625 94.609375 192.765625 95.949219 " fill-opacity="1" fill-rule="nonzero"/><path fill="#1b3c60" d="M 182.085938 67.667969 C 182.085938 69.007812 181 70.09375 179.660156 70.09375 C 178.324219 70.09375 177.238281 69.007812 177.238281 67.667969 C 177.238281 66.332031 178.324219 65.246094 179.660156 65.246094 C 181 65.246094 182.085938 66.332031 182.085938 67.667969 " fill-opacity="1" fill-rule="nonzero"/><path fill="#1b3c60" d="M 192.035156 100.351562 C 192.035156 101.691406 190.949219 102.777344 189.613281 102.777344 C 188.273438 102.777344 187.1875 101.691406 187.1875 100.351562 C 187.1875 99.011719 188.273438 97.925781 189.613281 97.925781 C 190.949219 97.925781 192.035156 99.011719 192.035156 100.351562 " fill-opacity="1" fill-rule="nonzero"/><path fill="#1b3c60" d="M 181.367188 103.121094 C 181.367188 104.460938 180.285156 105.542969 178.945312 105.542969 C 177.605469 105.542969 176.523438 104.460938 176.523438 103.121094 C 176.523438 101.78125 177.605469 100.695312 178.945312 100.695312 C 180.285156 100.695312 181.367188 101.78125 181.367188 103.121094 " fill-opacity="1" fill-rule="nonzero"/><path fill="#1b3c60" d="M 184.957031 104.304688 C 184.957031 105.644531 183.875 106.730469 182.535156 106.730469 C 181.199219 106.730469 180.113281 105.644531 180.113281 104.304688 C 180.113281 102.96875 181.199219 101.882812 182.535156 101.882812 C 183.875 101.882812 184.957031 102.96875 184.957031 104.304688 " fill-opacity="1" fill-rule="nonzero"/><path fill="#1b3c60" d="M 189.140625 102.453125 C 189.140625 103.789062 188.058594 104.875 186.71875 104.875 C 185.378906 104.875 184.296875 103.789062 184.296875 102.453125 C 184.296875 101.113281 185.378906 100.027344 186.71875 100.027344 C 188.058594 100.027344 189.140625 101.113281 189.140625 102.453125 " fill-opacity="1" fill-rule="nonzero"/><path fill="#e15783" d="M 170.417969 88.550781 C 170.417969 91.074219 172.464844 93.117188 174.984375 93.117188 C 177.507812 93.117188 179.554688 91.074219 179.554688 88.550781 C 179.554688 86.023438 177.507812 83.976562 174.984375 83.976562 C 172.464844 83.976562 170.417969 86.023438 170.417969 88.550781 " fill-opacity="1" fill-rule="nonzero"/><path fill="#1b3c60" d="M 173.609375 91.960938 C 173.664062 91.960938 173.722656 91.945312 173.777344 91.921875 C 173.976562 91.828125 174.058594 91.59375 173.96875 91.398438 C 172.398438 88.039062 175.0625 85.9375 175.175781 85.84375 C 175.347656 85.714844 175.382812 85.464844 175.25 85.292969 C 175.117188 85.117188 174.871094 85.085938 174.695312 85.21875 C 174.660156 85.242188 171.402344 87.792969 173.25 91.730469 C 173.320312 91.875 173.460938 91.960938 173.609375 91.960938 " fill-opacity="1" fill-rule="nonzero"/><path fill="#1b3c60" d="M 177.863281 90.214844 C 177.933594 90.214844 178.007812 90.195312 178.070312 90.15625 C 178.253906 90.039062 178.3125 89.796875 178.199219 89.609375 C 176.214844 86.421875 173.316406 87.234375 173.285156 87.242188 C 173.078125 87.304688 172.957031 87.527344 173.019531 87.734375 C 173.078125 87.941406 173.296875 88.0625 173.507812 88 C 173.605469 87.976562 175.871094 87.367188 177.523438 90.03125 C 177.597656 90.148438 177.730469 90.214844 177.863281 90.214844 " fill-opacity="1" fill-rule="nonzero"/><g clip-path="url(#id2)"><path fill="#ef3530" d="M 13.910156 81.867188 L 13.910156 129.460938 C 13.910156 132.714844 16.894531 135.152344 20.078125 134.503906 L 111.546875 115.960938 C 113.949219 115.472656 115.671875 113.367188 115.671875 110.914062 L 115.671875 65.074219 C 115.671875 61.855469 112.761719 59.425781 109.597656 60.003906 L 18.132812 76.800781 C 15.6875 77.25 13.910156 79.378906 13.910156 81.867188 " fill-opacity="1" fill-rule="nonzero"/></g><path fill="#ef3530" d="M 37.292969 152.140625 C 35.722656 152.140625 34.304688 151.058594 33.9375 149.460938 C 33.511719 147.605469 34.671875 145.753906 36.527344 145.328125 L 94.234375 132.128906 C 96.09375 131.707031 97.9375 132.867188 98.363281 134.722656 C 98.785156 136.578125 97.625 138.429688 95.769531 138.851562 L 38.066406 152.054688 C 37.804688 152.109375 37.546875 152.140625 37.292969 152.140625 " fill-opacity="1" fill-rule="nonzero"/><path fill="#ef3530" d="M 70.386719 142.019531 L 61.914062 142.019531 L 61.914062 118.167969 L 70.386719 118.167969 L 70.386719 142.019531 " fill-opacity="1" fill-rule="nonzero"/><path fill="#1b3c60" d="M 61.914062 126.671875 C 61.613281 126.671875 61.34375 126.460938 61.28125 126.152344 C 61.210938 125.800781 61.433594 125.460938 61.785156 125.390625 L 70.257812 123.675781 C 70.609375 123.609375 70.949219 123.828125 71.019531 124.179688 C 71.089844 124.53125 70.863281 124.871094 70.511719 124.941406 L 62.042969 126.65625 C 62 126.667969 61.957031 126.671875 61.914062 126.671875 " fill-opacity="1" fill-rule="nonzero"/><path fill="#1b3c60" d="M 61.914062 140.09375 C 61.613281 140.09375 61.347656 139.886719 61.285156 139.578125 C 61.210938 139.234375 61.429688 138.890625 61.78125 138.816406 L 70.25 137.015625 C 70.597656 136.941406 70.945312 137.164062 71.019531 137.515625 C 71.09375 137.867188 70.871094 138.210938 70.519531 138.285156 L 62.046875 140.078125 C 62.003906 140.085938 61.957031 140.09375 61.914062 140.09375 " fill-opacity="1" fill-rule="nonzero"/><path fill="#1b3c60" d="M 1.089844 165.925781 C 0.796875 165.925781 0.53125 165.730469 0.460938 165.433594 C 0.375 165.085938 0.585938 164.734375 0.933594 164.652344 L 113.160156 137.019531 C 113.507812 136.9375 113.855469 137.148438 113.941406 137.496094 C 114.027344 137.84375 113.816406 138.191406 113.46875 138.277344 L 1.242188 165.90625 C 1.191406 165.917969 1.136719 165.925781 1.089844 165.925781 " fill-opacity="1" fill-rule="nonzero"/></svg>